<mxfile host="Electron" agent="Mozilla/5.0 (Windows NT 10.0; Win64; x64) AppleWebKit/537.36 (KHTML, like Gecko) draw.io/28.0.6 Chrome/138.0.7204.100 Electron/37.2.3 Safari/537.36" version="28.0.6">
  <diagram name="Page-1" id="_6v_IKJx4TO-8yb07x7u">
    <mxGraphModel dx="1123" dy="806" grid="1" gridSize="10" guides="1" tooltips="1" connect="1" arrows="1" fold="1" page="1" pageScale="1" pageWidth="850" pageHeight="1100" math="0" shadow="0">
      <root>
        <mxCell id="0" />
        <mxCell id="1" parent="0" />
        <mxCell id="dfukPsjsUEHtBz0K0S8L-1" value="" style="rounded=0;whiteSpace=wrap;html=1;rotation=-90;fillColor=none;strokeColor=light-dark(#FF5919,#F4EAEB);" vertex="1" parent="1">
          <mxGeometry x="104.80999999999997" y="459.12" width="609.01" height="158.28" as="geometry" />
        </mxCell>
        <mxCell id="dfukPsjsUEHtBz0K0S8L-2" value="&lt;font style=&quot;font-size: 18px;&quot;&gt;Sources&lt;/font&gt;" style="rounded=0;whiteSpace=wrap;html=1;strokeColor=none;fontStyle=1" vertex="1" parent="1">
          <mxGeometry x="364.31" y="210" width="90" height="40" as="geometry" />
        </mxCell>
        <mxCell id="dfukPsjsUEHtBz0K0S8L-3" value="" style="rounded=0;whiteSpace=wrap;html=1;rotation=-90;fillColor=none;strokeColor=light-dark(#FF5919,#F4EAEB);" vertex="1" parent="1">
          <mxGeometry x="936.77" y="449.89" width="610" height="168.51" as="geometry" />
        </mxCell>
        <mxCell id="dfukPsjsUEHtBz0K0S8L-4" value="&lt;font style=&quot;font-size: 18px;&quot;&gt;Consumer&lt;/font&gt;" style="rounded=0;whiteSpace=wrap;html=1;strokeColor=none;fontStyle=1" vertex="1" parent="1">
          <mxGeometry x="1196.77" y="220" width="90" height="10" as="geometry" />
        </mxCell>
        <mxCell id="dfukPsjsUEHtBz0K0S8L-5" value="&lt;b&gt;CRM&lt;/b&gt;" style="image;aspect=fixed;html=1;points=[];align=center;fontSize=12;image=img/lib/azure2/general/Folder_Blank.svg;" vertex="1" parent="1">
          <mxGeometry x="361.77" y="300" width="73.93" height="60" as="geometry" />
        </mxCell>
        <mxCell id="dfukPsjsUEHtBz0K0S8L-6" value="" style="image;aspect=fixed;html=1;points=[];align=center;fontSize=12;image=img/lib/azure2/general/File.svg;" vertex="1" parent="1">
          <mxGeometry x="406.41999999999996" y="340" width="24.35" height="30" as="geometry" />
        </mxCell>
        <mxCell id="dfukPsjsUEHtBz0K0S8L-7" value="" style="endArrow=none;html=1;rounded=0;entryX=0.537;entryY=0.998;entryDx=0;entryDy=0;entryPerimeter=0;" edge="1" parent="1">
          <mxGeometry width="50" height="50" relative="1" as="geometry">
            <mxPoint x="330" y="520" as="sourcePoint" />
            <mxPoint x="488.6184400000001" y="520.7266299999999" as="targetPoint" />
          </mxGeometry>
        </mxCell>
        <mxCell id="dfukPsjsUEHtBz0K0S8L-8" value="" style="rounded=0;whiteSpace=wrap;html=1;rotation=-90;fillColor=none;strokeColor=light-dark(#FF5919,#F4EAEB);" vertex="1" parent="1">
          <mxGeometry x="533.48" y="250.78" width="606.6" height="570.81" as="geometry" />
        </mxCell>
        <mxCell id="dfukPsjsUEHtBz0K0S8L-9" value="&lt;font style=&quot;font-size: 18px;&quot;&gt;Data Warehouse&lt;/font&gt;" style="rounded=0;whiteSpace=wrap;html=1;strokeColor=none;fontStyle=1" vertex="1" parent="1">
          <mxGeometry x="782.03" y="210" width="90" height="30" as="geometry" />
        </mxCell>
        <mxCell id="dfukPsjsUEHtBz0K0S8L-10" value="&lt;font style=&quot;font-size: 15px;&quot;&gt;&lt;b&gt;Bronze layer&lt;/b&gt;&lt;/font&gt;" style="rounded=0;whiteSpace=wrap;html=1;fillColor=#FF0000;strokeColor=#FFFFFF;fillStyle=dashed;" vertex="1" parent="1">
          <mxGeometry x="579.03" y="287.1" width="126" height="40" as="geometry" />
        </mxCell>
        <mxCell id="dfukPsjsUEHtBz0K0S8L-11" value="" style="rounded=0;whiteSpace=wrap;html=1;fillColor=none;strokeColor=#FFFFFF;" vertex="1" parent="1">
          <mxGeometry x="576.77" y="337.1" width="128.26" height="492.9" as="geometry" />
        </mxCell>
        <mxCell id="dfukPsjsUEHtBz0K0S8L-12" value="&lt;font style=&quot;font-size: 15px;&quot;&gt;&lt;b&gt;Silver layer&lt;/b&gt;&lt;/font&gt;" style="rounded=0;whiteSpace=wrap;html=1;fillColor=#C0C0C0;strokeColor=#FFFFFF;fillStyle=cross-hatch;" vertex="1" parent="1">
          <mxGeometry x="759.03" y="287.1" width="128" height="40" as="geometry" />
        </mxCell>
        <mxCell id="dfukPsjsUEHtBz0K0S8L-13" value="" style="rounded=0;whiteSpace=wrap;html=1;fillColor=none;strokeColor=#FFFFFF;" vertex="1" parent="1">
          <mxGeometry x="759.03" y="337.1" width="147.74" height="492.9" as="geometry" />
        </mxCell>
        <mxCell id="dfukPsjsUEHtBz0K0S8L-14" value="&lt;font style=&quot;font-size: 15px;&quot;&gt;&lt;b&gt;Gold layer&lt;/b&gt;&lt;/font&gt;" style="rounded=0;whiteSpace=wrap;html=1;fillColor=#FFD700;strokeColor=#d79b00;fillStyle=cross-hatch;" vertex="1" parent="1">
          <mxGeometry x="957.03" y="287.1" width="144" height="40" as="geometry" />
        </mxCell>
        <mxCell id="dfukPsjsUEHtBz0K0S8L-15" value="" style="rounded=0;whiteSpace=wrap;html=1;fillColor=none;strokeColor=#FFFFFF;" vertex="1" parent="1">
          <mxGeometry x="957.03" y="338.9" width="139.74" height="491.1" as="geometry" />
        </mxCell>
        <mxCell id="dfukPsjsUEHtBz0K0S8L-16" value="&lt;b&gt;ERP&lt;/b&gt;" style="image;aspect=fixed;html=1;points=[];align=center;fontSize=12;image=img/lib/azure2/general/Folder_Blank.svg;" vertex="1" parent="1">
          <mxGeometry x="364.22999999999996" y="400" width="69" height="56.00000000000001" as="geometry" />
        </mxCell>
        <mxCell id="dfukPsjsUEHtBz0K0S8L-17" value="" style="image;aspect=fixed;html=1;points=[];align=center;fontSize=12;image=img/lib/azure2/general/File.svg;" vertex="1" parent="1">
          <mxGeometry x="409.22999999999996" y="433.75" width="24" height="29.57" as="geometry" />
        </mxCell>
        <mxCell id="dfukPsjsUEHtBz0K0S8L-18" value="&lt;div style=&quot;&quot;&gt;&lt;b style=&quot;background-color: transparent; color: light-dark(rgb(0, 0, 0), rgb(255, 255, 255));&quot;&gt;Object type: &lt;/b&gt;&lt;span style=&quot;background-color: transparent; color: light-dark(rgb(0, 0, 0), rgb(255, 255, 255));&quot;&gt;CSV File&lt;/span&gt;&lt;/div&gt;" style="text;html=1;align=left;verticalAlign=middle;whiteSpace=wrap;rounded=0;" vertex="1" parent="1">
          <mxGeometry x="336.77" y="533.28" width="150" height="30" as="geometry" />
        </mxCell>
        <mxCell id="dfukPsjsUEHtBz0K0S8L-19" value="&lt;div style=&quot;&quot;&gt;&lt;b style=&quot;background-color: transparent; color: light-dark(rgb(0, 0, 0), rgb(255, 255, 255));&quot;&gt;Interface: &lt;/b&gt;&lt;span style=&quot;background-color: transparent; color: light-dark(rgb(0, 0, 0), rgb(255, 255, 255));&quot;&gt;File in folder&lt;/span&gt;&lt;/div&gt;" style="text;html=1;align=left;verticalAlign=middle;whiteSpace=wrap;rounded=0;" vertex="1" parent="1">
          <mxGeometry x="336.77" y="600" width="150" height="30" as="geometry" />
        </mxCell>
        <mxCell id="dfukPsjsUEHtBz0K0S8L-20" value="" style="html=1;verticalLabelPosition=bottom;align=center;labelBackgroundColor=#ffffff;verticalAlign=top;strokeWidth=2;strokeColor=#0080F0;shadow=0;dashed=0;shape=mxgraph.ios7.icons.data;" vertex="1" parent="1">
          <mxGeometry x="606.77" y="375" width="67" height="67.65" as="geometry" />
        </mxCell>
        <mxCell id="dfukPsjsUEHtBz0K0S8L-21" value="" style="html=1;verticalLabelPosition=bottom;align=center;labelBackgroundColor=#ffffff;verticalAlign=top;strokeWidth=2;strokeColor=#0080F0;shadow=0;dashed=0;shape=mxgraph.ios7.icons.data;" vertex="1" parent="1">
          <mxGeometry x="993.53" y="374.65" width="71" height="68" as="geometry" />
        </mxCell>
        <mxCell id="dfukPsjsUEHtBz0K0S8L-22" value="" style="html=1;verticalLabelPosition=bottom;align=center;labelBackgroundColor=#ffffff;verticalAlign=top;strokeWidth=2;strokeColor=#0080F0;shadow=0;dashed=0;shape=mxgraph.ios7.icons.data;" vertex="1" parent="1">
          <mxGeometry x="788.41" y="375" width="69.24" height="67.65" as="geometry" />
        </mxCell>
        <mxCell id="dfukPsjsUEHtBz0K0S8L-23" value="" style="shape=singleArrow;whiteSpace=wrap;html=1;fillColor=#B3B3B3;" vertex="1" parent="1">
          <mxGeometry x="1096.77" y="496.59999999999997" width="70" height="36.68" as="geometry" />
        </mxCell>
        <mxCell id="dfukPsjsUEHtBz0K0S8L-24" value="" style="shape=singleArrow;whiteSpace=wrap;html=1;fillColor=#B3B3B3;" vertex="1" parent="1">
          <mxGeometry x="486.77" y="496.6" width="70" height="36.68" as="geometry" />
        </mxCell>
        <mxCell id="dfukPsjsUEHtBz0K0S8L-25" value="" style="shape=singleArrow;whiteSpace=wrap;html=1;fillColor=#B3B3B3;" vertex="1" parent="1">
          <mxGeometry x="706.77" y="496.59999999999997" width="61.74" height="36.68" as="geometry" />
        </mxCell>
        <mxCell id="dfukPsjsUEHtBz0K0S8L-26" value="" style="shape=singleArrow;whiteSpace=wrap;html=1;fillColor=#B3B3B3;" vertex="1" parent="1">
          <mxGeometry x="906.77" y="496.6" width="60" height="36.68" as="geometry" />
        </mxCell>
        <mxCell id="dfukPsjsUEHtBz0K0S8L-27" value="&lt;font style=&quot;font-size: 15px;&quot;&gt;Raw Data&lt;/font&gt;" style="text;html=1;align=center;verticalAlign=middle;whiteSpace=wrap;rounded=0;" vertex="1" parent="1">
          <mxGeometry x="596.77" y="450" width="87" height="60" as="geometry" />
        </mxCell>
        <mxCell id="dfukPsjsUEHtBz0K0S8L-28" value="&lt;font style=&quot;font-size: 15px;&quot;&gt;Cleaned, standardized data&lt;/font&gt;" style="text;html=1;align=center;verticalAlign=middle;whiteSpace=wrap;rounded=0;" vertex="1" parent="1">
          <mxGeometry x="763.03" y="450" width="120" height="60" as="geometry" />
        </mxCell>
        <mxCell id="dfukPsjsUEHtBz0K0S8L-29" value="&lt;font style=&quot;font-size: 15px;&quot;&gt;Business-ready data&lt;/font&gt;" style="text;html=1;align=center;verticalAlign=middle;whiteSpace=wrap;rounded=0;" vertex="1" parent="1">
          <mxGeometry x="966.77" y="449.89" width="120" height="60" as="geometry" />
        </mxCell>
        <mxCell id="dfukPsjsUEHtBz0K0S8L-30" value="&lt;div style=&quot;&quot;&gt;&lt;b style=&quot;background-color: transparent; color: light-dark(rgb(0, 0, 0), rgb(255, 255, 255));&quot;&gt;Object type: &lt;/b&gt;&lt;span style=&quot;background-color: transparent; color: light-dark(rgb(0, 0, 0), rgb(255, 255, 255));&quot;&gt;Table&lt;/span&gt;&lt;/div&gt;&lt;div style=&quot;&quot;&gt;&lt;span style=&quot;background-color: transparent; color: light-dark(rgb(0, 0, 0), rgb(255, 255, 255));&quot;&gt;&lt;br&gt;&lt;/span&gt;&lt;/div&gt;" style="text;html=1;align=left;verticalAlign=middle;whiteSpace=wrap;rounded=0;" vertex="1" parent="1">
          <mxGeometry x="579.03" y="550" width="127.74" height="20" as="geometry" />
        </mxCell>
        <mxCell id="dfukPsjsUEHtBz0K0S8L-31" value="&lt;div style=&quot;&quot;&gt;&lt;span style=&quot;background-color: transparent; color: light-dark(rgb(0, 0, 0), rgb(255, 255, 255));&quot;&gt;&lt;b&gt;Load:&lt;/b&gt;&lt;/span&gt;&lt;/div&gt;&lt;div style=&quot;&quot;&gt;&lt;ul&gt;&lt;li&gt;&lt;span style=&quot;background-color: transparent; color: light-dark(rgb(0, 0, 0), rgb(255, 255, 255));&quot;&gt;Bat&lt;/span&gt;&lt;span style=&quot;background-color: transparent; color: light-dark(rgb(0, 0, 0), rgb(255, 255, 255));&quot;&gt;ch processing&lt;/span&gt;&lt;/li&gt;&lt;li&gt;&lt;span style=&quot;background-color: transparent; color: light-dark(rgb(0, 0, 0), rgb(255, 255, 255));&quot;&gt;Full load&lt;/span&gt;&lt;/li&gt;&lt;li&gt;&lt;span style=&quot;background-color: transparent; color: light-dark(rgb(0, 0, 0), rgb(255, 255, 255));&quot;&gt;&amp;nbsp;Truncate &amp;amp; insert&lt;/span&gt;&lt;/li&gt;&lt;/ul&gt;&lt;div&gt;&lt;b&gt;Data model: &lt;/b&gt;None (as-is)&lt;/div&gt;&lt;/div&gt;" style="text;html=1;align=left;verticalAlign=middle;whiteSpace=wrap;rounded=0;" vertex="1" parent="1">
          <mxGeometry x="578.16" y="570" width="127.74" height="140" as="geometry" />
        </mxCell>
        <mxCell id="dfukPsjsUEHtBz0K0S8L-32" value="&lt;div style=&quot;&quot;&gt;&lt;span style=&quot;background-color: transparent; color: light-dark(rgb(0, 0, 0), rgb(255, 255, 255));&quot;&gt;&lt;b&gt;Load:&lt;/b&gt;&lt;/span&gt;&lt;/div&gt;&lt;div style=&quot;&quot;&gt;&lt;ul&gt;&lt;li&gt;&lt;span style=&quot;background-color: transparent; color: light-dark(rgb(0, 0, 0), rgb(255, 255, 255));&quot;&gt;Bat&lt;/span&gt;&lt;span style=&quot;background-color: transparent; color: light-dark(rgb(0, 0, 0), rgb(255, 255, 255));&quot;&gt;ch processing&lt;/span&gt;&lt;/li&gt;&lt;li&gt;&lt;span style=&quot;background-color: transparent; color: light-dark(rgb(0, 0, 0), rgb(255, 255, 255));&quot;&gt;Full load (trunc &amp;amp; insert)&lt;/span&gt;&lt;/li&gt;&lt;/ul&gt;&lt;div&gt;&lt;b&gt;Transformations:&lt;/b&gt;&lt;/div&gt;&lt;div&gt;&lt;ul&gt;&lt;li&gt;Data cleansing&lt;/li&gt;&lt;li&gt;Data standazidation&lt;/li&gt;&lt;li&gt;Data normalization&lt;/li&gt;&lt;li&gt;Data enrichment&lt;/li&gt;&lt;/ul&gt;&lt;div&gt;&lt;b&gt;Data model:&amp;nbsp;&lt;/b&gt;None (as-is)&lt;/div&gt;&lt;b&gt;&lt;/b&gt;&lt;/div&gt;&lt;/div&gt;" style="text;html=1;align=left;verticalAlign=middle;whiteSpace=wrap;rounded=0;" vertex="1" parent="1">
          <mxGeometry x="759.5" y="570" width="127.74" height="260" as="geometry" />
        </mxCell>
        <mxCell id="dfukPsjsUEHtBz0K0S8L-33" value="&lt;div style=&quot;&quot;&gt;&lt;b style=&quot;background-color: transparent; color: light-dark(rgb(0, 0, 0), rgb(255, 255, 255));&quot;&gt;Object type: &lt;/b&gt;&lt;span style=&quot;background-color: transparent; color: light-dark(rgb(0, 0, 0), rgb(255, 255, 255));&quot;&gt;Table&lt;/span&gt;&lt;/div&gt;&lt;div style=&quot;&quot;&gt;&lt;span style=&quot;background-color: transparent; color: light-dark(rgb(0, 0, 0), rgb(255, 255, 255));&quot;&gt;&lt;br&gt;&lt;/span&gt;&lt;/div&gt;" style="text;html=1;align=left;verticalAlign=middle;whiteSpace=wrap;rounded=0;" vertex="1" parent="1">
          <mxGeometry x="759.5" y="550" width="127.74" height="30" as="geometry" />
        </mxCell>
        <mxCell id="dfukPsjsUEHtBz0K0S8L-34" value="&lt;div style=&quot;&quot;&gt;&lt;b&gt;No load&lt;/b&gt;&lt;/div&gt;&lt;div style=&quot;&quot;&gt;&lt;b&gt;&lt;br&gt;&lt;/b&gt;&lt;/div&gt;&lt;div style=&quot;&quot;&gt;&lt;div&gt;&lt;b&gt;Transformations:&lt;/b&gt;&lt;/div&gt;&lt;div&gt;&lt;ul&gt;&lt;li&gt;Data integrations&lt;/li&gt;&lt;li&gt;Aggregations&lt;/li&gt;&lt;li&gt;Business Logics&lt;/li&gt;&lt;/ul&gt;&lt;div&gt;&lt;b&gt;Data model:&amp;nbsp;&lt;/b&gt;&lt;/div&gt;&lt;div&gt;&lt;ul&gt;&lt;li&gt;Star schema&lt;/li&gt;&lt;li&gt;Flat table&lt;/li&gt;&lt;li&gt;aggregated table&lt;/li&gt;&lt;/ul&gt;&lt;/div&gt;&lt;b&gt;&lt;/b&gt;&lt;/div&gt;&lt;/div&gt;" style="text;html=1;align=left;verticalAlign=middle;whiteSpace=wrap;rounded=0;" vertex="1" parent="1">
          <mxGeometry x="955.9699999999999" y="570" width="133.87" height="196.72" as="geometry" />
        </mxCell>
        <mxCell id="dfukPsjsUEHtBz0K0S8L-35" value="&lt;div style=&quot;&quot;&gt;&lt;b style=&quot;background-color: transparent; color: light-dark(rgb(0, 0, 0), rgb(255, 255, 255));&quot;&gt;Object type: &lt;/b&gt;&lt;span style=&quot;background-color: transparent; color: light-dark(rgb(0, 0, 0), rgb(255, 255, 255));&quot;&gt;Views&lt;/span&gt;&lt;/div&gt;&lt;div style=&quot;&quot;&gt;&lt;span style=&quot;background-color: transparent; color: light-dark(rgb(0, 0, 0), rgb(255, 255, 255));&quot;&gt;&lt;br&gt;&lt;/span&gt;&lt;/div&gt;" style="text;html=1;align=left;verticalAlign=middle;whiteSpace=wrap;rounded=0;" vertex="1" parent="1">
          <mxGeometry x="959.03" y="545" width="127.74" height="30" as="geometry" />
        </mxCell>
        <mxCell id="dfukPsjsUEHtBz0K0S8L-36" value="" style="endArrow=none;html=1;rounded=0;entryX=1;entryY=0.371;entryDx=0;entryDy=0;entryPerimeter=0;" edge="1" parent="1" target="dfukPsjsUEHtBz0K0S8L-11">
          <mxGeometry width="50" height="50" relative="1" as="geometry">
            <mxPoint x="576.77" y="520" as="sourcePoint" />
            <mxPoint x="735.3884400000001" y="520.7266299999999" as="targetPoint" />
          </mxGeometry>
        </mxCell>
        <mxCell id="dfukPsjsUEHtBz0K0S8L-37" value="" style="endArrow=none;html=1;rounded=0;entryX=1;entryY=0.378;entryDx=0;entryDy=0;entryPerimeter=0;" edge="1" parent="1">
          <mxGeometry width="50" height="50" relative="1" as="geometry">
            <mxPoint x="759.03" y="520" as="sourcePoint" />
            <mxPoint x="906.3" y="520.0962" as="targetPoint" />
          </mxGeometry>
        </mxCell>
        <mxCell id="dfukPsjsUEHtBz0K0S8L-38" value="" style="endArrow=none;html=1;rounded=0;entryX=1.004;entryY=0.369;entryDx=0;entryDy=0;entryPerimeter=0;" edge="1" parent="1" target="dfukPsjsUEHtBz0K0S8L-15">
          <mxGeometry width="50" height="50" relative="1" as="geometry">
            <mxPoint x="956.77" y="520" as="sourcePoint" />
            <mxPoint x="1096.54" y="520.0962" as="targetPoint" />
          </mxGeometry>
        </mxCell>
        <mxCell id="dfukPsjsUEHtBz0K0S8L-39" value="&lt;font style=&quot;font-size: 15px;&quot;&gt;BI &amp;amp; Reportng&lt;/font&gt;" style="image;aspect=fixed;html=1;points=[];align=center;fontSize=12;image=img/lib/azure2/analytics/Power_BI_Embedded.svg;" vertex="1" parent="1">
          <mxGeometry x="1193.32" y="310" width="87.01" height="116" as="geometry" />
        </mxCell>
        <mxCell id="dfukPsjsUEHtBz0K0S8L-40" value="" style="editableCssRules=.*;html=1;shape=image;verticalLabelPosition=bottom;labelBackgroundColor=#ffffff;verticalAlign=top;aspect=fixed;imageAspect=0;image=data:image/svg+xml,PHN2ZyB4bWxucz0iaHR0cDovL3d3dy53My5vcmcvMjAwMC9zdmciIHhtbG5zOnY9Imh0dHBzOi8vdmVjdGEuaW8vbmFubyIgd2lkdGg9IjIwLjAwMTA0NTIyNzA1MDc4IiBoZWlnaHQ9IjIwLjAwMTA0NTIyNzA1MDc4IiBmaWxsLXJ1bGU9ImV2ZW5vZGQiIHZpZXdCb3g9IjAgMCAyMC4wMDEwNDUyMjcwNTA3OCAyMC4wMDEwNDUyMjcwNTA3OCI+JiN4YTsJPHN0eWxlIHR5cGU9InRleHQvY3NzIj4mI3hhOwkuc3Qwe2ZpbGw6I2FlY2JmYTt9JiN4YTsJLnN0MXtmaWxsOiM2NjlkZjY7fSYjeGE7CS5zdDJ7ZmlsbDojNDI4NWY0O30mI3hhOwk8L3N0eWxlPiYjeGE7CTxwYXRoIGNsYXNzPSJzdDAiIGQ9Ik00LjczIDguODN2Mi42M2E0LjkxIDQuOTEgMCAwIDAgMS43MSAxLjc0VjguODN6Ii8+JiN4YTsJPHBhdGggY2xhc3M9InN0MSIgZD0iTTcuODkgNi40MXY3LjUzQTcuNjIgNy42MiAwIDAgMCA5IDE0YTggOCAwIDAgMCAxIDBWNi40MXoiLz4mI3hhOwk8cGF0aCBjbGFzcz0ic3QwIiBkPSJNMTEuNjQgOS44NnYzLjI5YTUgNSAwIDAgMCAxLjctMS44MlY5Ljg2eiIvPiYjeGE7CTxwYXRoIGNsYXNzPSJzdDIiIGQ9Ik0xNS43NCAxNC4zMmwtMS40MiAxLjQyYS40Mi40MiAwIDAgMCAwIC42bDMuNTQgMy41NGEuNDIuNDIgMCAwIDAgLjU5IDBsMS40My0xLjQzYS40Mi40MiAwIDAgMCAwLS41OWwtMy41NC0zLjU0YS40Mi40MiAwIDAgMC0uNiAwIi8+JiN4YTsJPHBhdGggY2xhc3M9InN0MSIgZD0iTTkgMGE5IDkgMCAxIDAgMCAxOEE5IDkgMCAxIDAgOSAwbTAgMTUuNjlhNi42OCA2LjY4IDAgMCAxIC4wMDctMTMuMzYgNi42OCA2LjY4IDAgMCAxIDQuNzI3IDExLjQwM0E2LjY4IDYuNjggMCAwIDEgOSAxNS42OSIvPiYjeGE7PC9zdmc+;align=center;" vertex="1" parent="1">
          <mxGeometry x="1181.44" y="483.21999999999997" width="100.11" height="100.11" as="geometry" />
        </mxCell>
        <mxCell id="dfukPsjsUEHtBz0K0S8L-41" value="&lt;span style=&quot;font-size: 14px; text-wrap-mode: nowrap; background-color: rgb(18, 18, 18);&quot;&gt;Ad-Hoc MySQL Queries&lt;/span&gt;" style="text;html=1;align=center;verticalAlign=middle;whiteSpace=wrap;rounded=0;" vertex="1" parent="1">
          <mxGeometry x="1206.44" y="583.33" width="60" height="30" as="geometry" />
        </mxCell>
        <mxCell id="dfukPsjsUEHtBz0K0S8L-42" value="" style="points=[];aspect=fixed;html=1;align=center;shadow=0;dashed=0;fillColor=#FF6A00;strokeColor=none;shape=mxgraph.alibaba_cloud.machine_learning;" vertex="1" parent="1">
          <mxGeometry x="1186.77" y="660" width="89.46" height="90" as="geometry" />
        </mxCell>
        <mxCell id="dfukPsjsUEHtBz0K0S8L-43" value="&lt;font style=&quot;font-size: 15px;&quot;&gt;Machine Learning&lt;/font&gt;" style="text;html=1;align=center;verticalAlign=middle;whiteSpace=wrap;rounded=0;" vertex="1" parent="1">
          <mxGeometry x="1166.77" y="750" width="140" height="30" as="geometry" />
        </mxCell>
        <mxCell id="dfukPsjsUEHtBz0K0S8L-44" value="" style="shape=image;verticalLabelPosition=bottom;labelBackgroundColor=default;verticalAlign=top;aspect=fixed;imageAspect=0;image=data:image/png,iVBORw0KGgoAAAANSUhEUgAAAIAAAACACAYAAADDPmHLAAAACXBIWXMAAE69AABOvQFzamgUAAAAGXRFWHRTb2Z0d2FyZQB3d3cuaW5rc2NhcGUub3Jnm+48GgAAIABJREFUeJztnXl4VNX5x7/vmZksIFBQq1YF3KoWsFUUZBFiyUwWSEIIEyCBEAgG0YJFwb04ikhBwSpVy5aEbECGzSxMJgEMImgR6gJKW6y7VZSt8AsJydz7/v5IAmHuvZOZOzMQdT7Pw2M8955zz9zzvWd/3wOECBEiRIgQIUKECBEiRIgQIX4u0IXOQCCIysyNuOhk2NUg7k6yfDXD0APElzLQjQldIaMbC3RjIJJBHQCACREMRIIAENWDqA5EzX9zHUgchaCjIHGUCUeJ6DDAX4HEl2SUvjzZUf7i7RdT6y7wT/ebH5UAMjNzI06cMPVh5t7M3AtEfRh8MxNdDQDc/A9ETf89J6zl76afzHQ2vLngm/+1+n+hEkYEIrRc+46IPgJoPwQ+ktiwL1KSPixblnDqPL4Wv2jXAhg1quAK4eLBMGAAyzyAiW4DENZUeM0FiabCPPM3cD4FoHbdBSE+gOBdROIdSTa8teUl85fn4XXpol0JwGotMaDx1O8IlADGCAbdxgCdLbwm2rkAmq+dE/YpCFtAKDeclqocS+JPB/VF+sAFF4DNZhP/fL/HEMgiDYwUJnQ7W6DkVnjN4T8+AZz9fwOdAGiTDC7u+umxLXZ7qhScN+sdF0wAafErerAw3gdB6QCuPKfAfsoCODfN74mwWhbGV6qfHXowsG/YO867ACYk5A+VwTMATmKQQVG4+FkJoPmfkEGoZCO9VG0bUg1QS/aDznkTwPjhOQOJxDwmRJ0tHFIWLn6OAmiJB0DQPiYxt/qpu+yBeveeCLoAMhJX3UoSL5AJZqDVi0dIAKoCOPMM2sGE2VVz7vp7YEpCnaAJwGotiexYV/sIgx5jIOzcwmv+OyQATwIACExCLCeXYbbDdueJABSLAhGMRCfG5Q3qeKp2PzOeAhAWjGf8TCBmzpZN0v7YebuGBeMBARfA5OF52ULwNgDXBjrtnzFXM8EZO3+nzWbjgJZZwJoAW5TN+EVkjxUQmAgoq+NQEwA9TYBanJLO9Z0n2G29GvworjMERE1Wa4nh64498oiaCj9EUEk9EXlyU9zLB8MDkVgABMDUubY2nxnp/qcVwkvi5PqjawPRHPidwJS4nAcBpPmbTisknK3tQ2iTtKvjnj/5m4hfApg6YuUAEM33Mw97AHoEJAZJ4Y0Xry2daCx5PcNgkE2XMmgIAY8BeM/PZ/wkIfCc2EW7/Rod+NEJZLonLncPE27zpkOm6AQytjDoieLyibu9eVpKUn5/FrQQzEN+5p1A92cd6Hz1Z33sqfoWlXQL4J74lakArT3npcIrAdQy0b1FpRML9Tw3JXnVZBn0CoMi2nrmuWE/VQEALCirauYdOXrep/4mgGmmjlg/gKVBegsfANZvnJjDzEMBfK83jZ8axHhQb1xdAphsXvkrAP18jFbLkMyF5Vkf6HlmazZtmribwFEADqCp0/hzp1fM4r3X64lo1BPJYBSxgI9DEOJphWXqhW+z2cS/37vWLDOPkME3gigcoK9kUE14A5UUOcYr5sE3bsw4AOA32dlLTd8cuehqIr4GknwTCTGUgaEAfqnnt/1YIcHxAF72OZ6eh90TnzMXjCcV7So02+Ot+eWZ0WpppScV/kaWpVymphpFZSbwGAs8sn5jxnLvc8g0PLmgF5GIlwmZDNz8U+4DNF/7i3PmHT43y7pqAGL8ypeBOsviCbXwtMRVdzNLm0GI8BC9KzGWpSTl/7bPrZ/OsNlssjc5rNiI/QD2A1g4fHTBQAliEsBpADr4kPUfEXSlnlj6OoHMJh/ufr9gc4ZiTXvMyLzrwNgAeCz8sxDu/+D963Ks1hKDD88GAFSsm7Crcl36PSzz9Qx+FUBA5tHbFUy6ylKfAEgc8fpeRqlasFGCDcAvfHoseKLUWF+Unb3UFwGewblhwrdV68bfzyTdBKBYTxrtFmJdoyKdTYC8n8m77gODdriHWeNyLgUwTuX2WjDKWSCCGMM18jfmhx8ih49MLjgO4LgMHGfCQcG8VwL/g1z1H5SVTfVomFFlz/gMQLoltXgNIC9j0OVe/Zj2DPHHeqLpEoAw0BuyFy0xAAiT/Il7mMlAdwBwr8rrWKI711Zk7AeA1MS8ISAqA9BZJdmLmv9d1SzDwUw0iUBgU4f6ESlFlTKznSNR7ihSjiBaqCpJK4saV9zHJOE1EEZ794vaKTK/oSearibgtYrJnwJ416sHyLKyuSBSjFkJ2NlS+ABQUpr5pswYBuCoj9mLAHgkEYpEPQ4NTylcNjylSHNzSs3qtMPVJWlWAI/iR7oIxcA+54P9PtIT14/FIH7Jm7tOhndSvFQBUlTRDFzsHra+NGMPQUQBOOR7/gAAEQzcI4P/FZtSmB83Zs11WjdWrxm3gAhpANqN1Y63EJHP4/8WdAvgyv5frQbwflv3dfi/U5e5hzFYzVbu1jGJq2afnQVowv76+H0k01AAiqbEB4xEmMCSa1+stXh2VNQbqk1fVfHYNUKwmYGTfjzrfPPx4Q5YpTey7sUgAMgasaIfyWIng4yA+kQQEYbnlU/a3Dqe1VoSFlZ/6jsGdVXZEuZsNBqmbNgw/mu3OJEuV51FsPiVTOjc3AW5GMBvmHAzgJ4MCC8Xg/YK4gyHfbxqxyk6bW00CaqAoLB2PhEkE2hY5ew7anwtuxb8EgAATIlb+RCTeAHQnAlcuKo88xH3eOmJeXOZ6UkVAYAJx5lohn1TRoG3+UhIKL6EjVI8CIkgiuPmCR8Pq4EnwDy2at14h1p6lgn2sUwoApFotwIQ9JRzVr9nvH1HavgtAADIis9bDPBMVQEI+s81fT//tfsMXlzcy+FdjV12g3CLh02hmxDWkGW3T/GpIxhjLelmlBumgTCdGZd5WA6WiPBgVUm6ahtqnmB/CIJeaKcCsA841W+szUZejsfUCcim0Kv7fT6LCEWqFxnXffZuzzj3YIdjxmmDkcwAeRpNjOSGsDL3fkFbOO2pRyvWj58n13brwcRPANDy5GFg4CVLavFjaherC0YvBmOz2rULzKbDXQzp/hY+ECAB2Gw2+X8dOk4E8SK16ywwX20Kt2BjxveGetxN4L9Bewg2MGVk4Sg9+XI44k871k14DpKxD4CtWvcx4Tnz2NX3Kq8Qy2GmyWhfew/yOtd1GrN36u2NgUhMlwCmDS/q6h5mt6dKORWTZwGcCfehFKNPeF3dk2ppFVRl1BaXZk4jyPEAvlG7h8BP2Ww23WJ1bBr7n/69P7EQsNDDba+Y09ZY3QO3rkg6RMAUXPg5AhcBDzsfHTBJzSYgZvGubnoS1dUHmBqX87wE3rfCkZWvdj0zIfcOlikH4N4tPXIGZAKNzi+fuFEr3bThRV0lgyuXCUnAmeXg5rYPqes2ZmhazCYkFF9CJu4js6s+0hi5125PVV3wiU0pHs/EK5ma7RVbtatMdNJgELc5C1MVQ07zpA0FIIy/QH2A/xBhQuXjg95W/U2L3k1kIUY7Z/bN0Ho/Wuj6qphgIFDelOEr/6h2Pa9s0runOnToS8AcnK0NBIPXTEjMVXxlLRRXpB+TwxsnA1BM3zKgWgtEZeZGJI4qeJVM0rcMeRtI7KqTT389YnSRqp1C5fq0QjBNgMpOIgI6ybJU1FdlsUk2GGYBOKaV9yDhAuilcCPfql34uzOZsB5g71ZV3fCnD0DE9OI9w3NWTo97WWGlYrenNuRVTJors7gVQHlzcBgzrU1PzJur1bGz26ccJfASxQVGrw8+uDbVPTjy0EkGoSfOWdegS5m5ID6lQHE/ADjXp5UQ8TSoVuvU7+LaLk+5h25dkXQIwONq6QWJrSyLW51/GvTH0kcGKyamrCUlBsvC3XMZyIHONR0gAJ1AZkw+RZ1qpiTkX6N2vaAi40B+eWYCgfoD7ARAYDyZnrBq69iRuT3V4shhrsVQqQWIMce9FnA4ZpxuPHUsGQT38TwR6HktoTlLxi+HxhYqBj0cnV7Sxz18UPcPlwEIqr0+CDsE6G7nU3dFV9kG7Ve7JWbenitOfN5zCxGehJ9D+UBZmt7JkvT+5PjcTK0b8ssn7i4onxTLhMEgrAMwWEjiw/Ejc6Pc79WsBYCb97137XD3QA8i6B6fnH+DVp4aOzY8SowPVS6ZiPCau3hsNpsMgXsBuLTS1IkEovUQNLTKNnRIpe2uGq0bY+bvioXR9T6aNsX6TSBNjTsDyJ00Iq9MqzYAgKLSzJ1FpZlWMhl6gHmhLIvpal+pVi0Aomlq6TocM067Th1LBs4dt0vCpLl5pCZvUj2ElA71BaBB5ox1We6B1cuT3wfwV600feRzJjwju1zXVs0dOrrKNvRNrRtj5r15Rcz8XcUgciCAG151VR/Z8TmLmTHTw6bQUzLoOarlRXk1k+o9pdUyP6DmLm10Uv5ioPVzAACNpxsNl1VUpKt2yOLiXg43dOi6gUHxAI7UHrny8pqauz1+sdFji+YSxJOK3rmgI0YD3+zITf2h9f3Dp5V3bZRcn4Com45RwLcgKmUhr66eb34TbTiEspaUGE4cvOpeEOaB0MXDyMHunHm7ap/HE0HxEAKgA4Gf5Q7498SEvCyt1TegqeC1fOURRK5KsCkszDVEKz2HY8Zp6dTFowDeDMazbRU+ANRKpucI+I/KpYtdslDMHVS8NuIYgGfbSrcZCYy/E/g5gO8c2GHnVVULou+tnm/Z7qnwbTYWMc+8lXriX1fsA/ivALp4+TyfCFYN4LYtnP7FJP+5PqJjsdb4XIvRSfkfgtCn9XoBBOZv2JDhsUdutZaE2e3Wxra+sBaGjSuOFRAOlW3hDNBd1atSdrqn/79u4QdAdK3b114LQXtB/HeGeIsjjNu3LDD/z/tfzGR++q2RArCBcIsPcwe6agDdwwff4BvBlBtRd2ru+IS8l2TZtLJYowpXQPQPgN175L9uK5qvQtu6Oq3SPG51CUDuL5Gaprh5QGsx2e2pDZapmx5nFhNI8D4A+4Us7au/rPPHNba2ax134mzvdJbk+omgN+8D001Ns03B5zwJ4AxXAXieROMzaYl5dgKWFZVm7vQYg7HfvZ5ihmYn0y+aarVYKPch9o+evN66JQclrQOrlo5cC2CtP480P/7G7wicLbnqJ0DgIn/S0sP5FkALkcTIYFBGWuKqgzKwhg20em2Tudc5MOETlW+hRzAyVb1m3H/N49Y8DYJyUYtpGHCuAPRiecx5E9g4BgJjAL75fH3tagSrE+gLNxDwJ5L447FJqxQ7c1kitQWiiy2W/I7ByIzxeOdXAP7UPZyAjJjs9VfoSbNv9h5TzOzKuyyzq+daHt7yPmTDAYBtYNzsf47940LVAKoQk3L3rom/hsqqd2Sk6AFA1154Tzgc8actaWvmMMHdhD1CdtEsAA+1lUbf7D2mSzoc7sOQB4HIDDoSxTJ1AnFzt/vCffHutCsByMRXuYcZDOHfs1zvglteiRAUAQBAl0ax5ng4ngLgNovIU6Oyy+bXLEs47B7HfH9ZsmAxlAX1g/j+VmZENFXt7aew1WgPTcAZiKEQgN2eKjHwrXs4C+4erHzY7akSERYor1BHo+R6QD0W92fiB5pGC17aO7YD2pUAAFIIAAAI/G9lGAWlI9hCl3oUAPSV8rn4Q3R2iWJSJrKO5wH4Lph5CgbtSwDMGoYbpKjqiblXMLNit6c2MPh5lUu/EJLpPvfA0pykkwBUzeDbM+1LAIRu40cVKHraTMq2XvbdRY3P1NbxCoAVVklEeHD4tHLFtriBl+7JI5Az2PkKJLoEQBw8yxlXg/QbxfNkUti9EXB5gjW/O9B0ulhSckFGwuhCiz97B915255aB8aL7uEMXOKSGxWbRmw2mwyTSAOgGEaeB2r1RNL7slQ3bwYEAxRVu4tc+wDlYNDQSHckjioc5AIOMmEVZHbu/fC6ikCKINIY9ioAhYErM90Xfd8GxTje+WLsUVnIIwD8N1B58AYiff0PnQ4iKHjn4DH1dg/atGnScQBK61dB/Qi8CMCZSSEGYvfuuy45UNkpzUk6SVAbEcAkJMNytf2DW/4y4oAs5LtA+CxQ+WgLmVnXoVO6BGA4deotaBtb+AUD/TUuqKwZsBWsdj+NCWSeTtbKfwWrFuagiw1XqNpCbHlxxKcNwtUPhE2BzIsWRsmgaffgCV0CeLXm/v8DKFgWM71HjsxVuo4hVgpAY1GIgTirtSQyUBl6255aR0Lcr3qRMT3m3tIJapdqFiUcrlocmwwgC0HdUUwfbJ512xd6YupvK4nzdMf1jAhjw0D3QBdL2+G9ccZFp6TT5kBmqion2QFAbYMKmGil5f7ysZpxF8fkGBqkG8GUg2AYmGhYZHmDbgEs3zy5HMA2vfE9w4PcQ15/ffJX8MIfwRmIdJmTeUyyseN0MP1TeYVNYC40318xRSuuY0n8D1WLzFkgMRi+/I424U8Od6A1emP71Vtm2TATQXDVyoBF/Qq97kMyCVZrSUAPrKoqiKmF7EqEyqgAgIHAyyx/2Px83PTNmqd5VC0YtqvLp0dvB/MMAMf9zJLMTFn+2An6JYAVlRM/BPEsf9JQg4C+o0YVKqaFZbh8EUC3evl0fACzBQCozht9kEDJANQ8kRHAsyTCbsuMcsVopgW7PVWqWmBeIhHfxIQC6G0WGC9WzeqnuZPYG/weL6+oyPoLCD64cfUKMkpyknvgpk2T3gfwubeJyKDMAObpDM4VI3dAFglQFwEA3AIS75pnVj49YKZ2Z3Trc9GHquf9PqPZBc4+X/LAwMbOPT9XON7wlYBMmBi+a7gfCPBwh5QCAAAG+1ILxMeoTC0HgqoVidsERDSAHzRuiSDmOZ3Q+WPLQ86RntJyzo/a0cV46e0A1IxhFBBhWxejlK73kIjWBEQAy/ZObTzRseNoInotEOkBAJii1IaDJENLAGrOEkwGEn5/JVpULk142yBLA8jzkTY9wdhoeci52Ty7StNKyW7r1VD1TNQMIlZMMZ8DYS1FHI23PzgwIPMwugQwJXG5wvOX3Z4qrazIvI+BRwEKhOmUKQxGhWeRoye674CK70ACNkK1IHjqCOsqXY6UvcGxLPk/p+s6DQTxEqiLsIU4YuyLeWTLvARbmabDaqdt6FwAlSqXZIDnDai7M80xI15hyRS/cLcub6f6FoMaxMP3xK9U8agB5FVMWiCIBoHwLz1pt4aZFc1Ak6EHKfwEMHMxCH9WSSZCkg1+OVJqi5q8u+urXkmcwSSGsOddSuHM/PjpusgDMY9Wp6jfQiwLfhzndgy/BsvRzscGPanmFib2L3tjJJNQ9dXQFvoEIIjA9Oo9w3PmqNn1rSyfuDuMGm7jpjbNn3YqVn0ox3MAtBw+wQysKN04YWOECF8PQG1OfFK8tSCgE0NqVP81fufRhst+R4RZ8OxrsDuD1lke2+qMefxNRR9ly5yh7wH0PgAZhL8ZhXyL84nBqq5gLS/sTmdZLgOTrk2yfvkHAOPpKfG5RWrTrsvKpp7Kr5g0A4Tf4qx/AF/pwq46xZzAxo0Z3x8/dtXtgtCX2HVt2YYJ9wDEzVu5HlbLK8u0LDFxZSed+fCavctub3S+FLeYmZLV9hK4YQE1Vqh9RAS8wkA/55ODp1U8dpdiGtlmY2F5/t2nqGkYqct7evNzfEdpGoYDsgHjc8sm/0MrzoSE/KEsy/MgMOisS7gmcycPbuLAjO3rSjOifMnfiJTCzQzEnUkPAAiQiTYN6HUwxbtDJ7wnyvaGMfxQbRQTDYIBd4LoThB+4a2LGJLpBuef7/baE2rMvD1XkEkqZKLfnzENg9jlfLCvYga1LQK0bk43C4nemRyX+7jWgQ4FZRnbCysyB8tM/QGsBuDd7BVh6OikAs0pVjWE4BlQWa0k5pFv779hri9ptUVMVmW3sEMn9zJxNYhtYMTCt3MQJEEGr20HzfPfscDoeo+B3/ueWyWB3BJmAmFep1O127MSV2ieYFVcPnF3UVlmmoHpGgBzoW6Vey7Ef00ZWeBxLN2aUvuETwBS9V8E4LGYlEL1lT0dsKnhQQC36I1PwHOO+UO05hLOMGzeO5dZ5r9dIIgrAShGYX4833e8sA5ukEGvGF2uZ1c62/byOSYh9w4QjSFQKgNXaxwfL8ugvzQ0ime1fAO4E59SuAbAGBVPoQzwbOe68bpX0Vqw3FtaBEKaD/4B6ohor0z4uyC87pwfrThQozXWkhLDyX9fOZUFzVM2K62sg3U2AcE2Dz8GQc91dp1YssQxo0037DabTRzYe93vZJKHgRAN0F0MRLr1E04ycTmz2EVEn0vEzMC3ZRsmKPofcemFnakeOxnoreoqlmj+L9j4Jy3/BN5gvrc0kwi5ngTAEBVk4CoS/M7h45e8t3eZF4s3zGR5dkcSQTwNQbe0aR7eTgXQ9AIYnzPxc/WRHQvt9lSvZ7Di4l4OjzR1GShIDIDA7TJzXwDdVc4OPkyS8bbXXx+n2McfN6rwKhB2gtBdxVcwiLDFwKY0hz21zWpYHSbLvWWLIGimZg0AOihDpGx50ezVfL/l6R0J1OQf4Dav/QO0awHgzNd7BETLG4X06pqm9X2fsVpzLnW5TH1loDcRbgDjepn4BoC+CTeED1XzC2BJKb7JQPIOBi7RODfwG4aYsWXt2A168gQAMdPK0ljQMhB11GgCaolEtvMFs8fDqixPbZ8Pokd9PjfwRyKAlhfvArBBhnj1xr6f7gjEsMxqLYn8oWMt1+Sp+ySypBTfJEiu5GaLItWDIwU5AOmB6uJ0XRssLfeW9yYjrWdBv9bsAxhoyZFjXR/SagYGzNwV2alL41oikfBTFkDzPQQmfENM6xmw39j3012BHqO3xjx29a/IJVcS0MfDyaEuENkF8QJn4VifzzmOm765s0TIAyFZcx4AYidDSq1eaFHdOt536R7TJYfqqgBE/eQF4NbB+4aBdTJTKSIi3valv+AtiYkrO502RfyNBdI0BNDyN0OQvVEYp9bkJfu4c4fJPMMxmwQ9ByKDxkTQd2AaU7VgmOqGjmjbW90Ngg+AqEMwBdC+TMOAKwE8QIK3UkPdMWtSwfaUpPynRyWuujtQu3xLS7NOOtenp4M4C9obOoCm151qYukF359CXP1y/EISZIa2q/nLIbDV/MQ21aPft9gGf8kMr09M0Ut7E0BrwgEeQsAcIWib3Fh/bFRSwVspSfmvjRq16r7k5PyhycmrFCeNeUtVyfgcgtSbWHN/QRMM1UOvW4jKfCNCyxLJuTj2DYNL7guCqqNnAEZiLDI/sS3fZlM5jV3IAXFJ44l25SCiDcJBPIiBQczU3OwQkpILvmXCfgCfMNF3MvA1gb4ToK/rZdd3VRszNA97aD5BdOSwccWxgvECoDRLA6mfVmbO3pRPRHeBTnbfdeg2Z0xW5XjnyljFpJdjSfzXVltJ1PETv1hEhD+opUWgCTulmm0A8lqHG6TwPbIh0F5pz6U91wDecgUAM4BpYH6amFcCXCFB/sAkxKH4lMLT8aML53o6dHrr6rTK6jVj+xAoETjHAukbmaGoovtmLzURYAXQE03vMI7DG/dET998q1r6dltqQ/Viy3Qwj4dGs0NMCmtnx1P9TyIYdgSt+CkIoC3CmPFkLRoq46wll2rfRly1ekxZdfHYwSQbbgYhirjuxq35oxXOpC9xXT4YSi8g1whZ3mm5v3yi1hOqFsUUyYQ7obpngfa6h0Q9XdMFOjvq3vJzEAAAgBnRzA37Y0cXaR5Y0ULV6tH/rC5I3V5VkKFqcs1CVu24AYgEUZ7lgc2vWm3qNglbFpj3yeA7CLwaTV+3DKLiI993VOzoCTMK3YtM3tLu/AMEmV8yUBIzumh9/KgiXS5mLFkbRwIY4fEmxrT/Hbtoe9z0zaoub7YsMP/P+WdzWkOD+KUhrL5r1bNR6WoTQyQJ712/EusqE31HxvD5tX0PAqNcBvzTMrro+eFpygOwtBg2ecMAGfB2792dkoH2xv7REaV1Q82iuw87bPGqp5vH2d64CgQfzgBS9afYJjr9A/B5s3sPIhFMmNXgwmfRY4oXxqUrLZFa6Ju91GTOXPeAALYR4Mu2sl/KRNUxMysfUtv2pfm8pXtMsjAuhw/PYsi6vJLo6mBkRuVGmCL5BxAuCvBMoHJLWHMulWm0/cxzw1SWg1veQNOsWiNIlBPJFYA4KBHXGYTxcjbQIIBTQXTNmS1cBJ9PDSMBe7iozypdmOSxqm5eCygiEsm+rAUIxm2Oh+7wZJ+giu4e5j1xuetAnPITEoDyJWu8eD0CaHosfQ6DmDmww1ul7mseNhuLnXgzlhgvgeh6H1cDv3DOvP0akHeu8VujeyJIBr0owBp720OoQugJ8MZdpwZ/ZXl0yzaAPoMAgUTPXa7t0SRwZZO6fIVf1FP4TVnyg+z4nFIZSAjVAG5pnL/j4wGBz4Wp602OGTe0ueNKDb/mAUjQQ/BsABEiuDCDp+stfMBPASwtn3SQwD5t2Q4ROBj8QtVD/fUa3QAIwEzg8s1ZJQSouVQNEVSo+khng9+uaQMyFbxi86SHAZofiLRCtA0xqjobXUmBOEI+YGsBKzdnPs5NIgjq6lUIfr2+vi7pgvoH0CJ3c+bjYE4G4MMxaSG8hAFaMKB+wKga290eD+P0Bb+GgVpMTMjrRTIXMfDb0DAwIMPA/0JQlvOxgWqOI/wiKMvBq8oyP+pZ+8XtTPgjdHqxDgGg6asvQCP1CUbhA0GqAVozPrHgeiFL8xlIAUChGsDbGgBvy4TZ1XOGeD5X0U+CLoAW0uNz+wiD+BODrSEBaAuAiT6GELbqOYPX6Z3e9YXzJoAW0hNy7wDEdAKnyqDwkAAIIGIQVZOQXx4g7nao+QEKFuddAC2MS1x+GSEsG0AGA9f/TAXwPUBrhAGvVj77e7+daunhggmgNWOT8vsT8zhusuW//CcugJMssIlYrG6IFNV6DpoOJO1CAK0Zl5DXSxI0AkA0g4Zyk+eRH7sAPgVhCwjlhtPEI8/pAAAA4ElEQVRSlWOJ0s/fhaLdCaA1VuuKbnJD2CAAAyFoIDPfDqBDOxeAC0J8AMG7GPS2UeIdjiXxXwf/bemjXQvAnezspabvvw/rBYjeTNSLgN5M1IubThMX510AoP9CiI8J+AgCHxFhvxwZ9mHVCzE/mrmPH5UAtMjOXmr69ljkVSQZrmZIPRiGHiC+lIFuAHeTQd0A6sbgMCbqAgBMMDFwUXPh1oOorrmw/48ENTDoKASOgsRREI6CxBEi+hKCvxSy4ct6ufMXNXmBm5INESJEiBAhQoQIESJEiBAhQoQINv8P1dag+LommLwAAAAASUVORK5CYII=;" vertex="1" parent="1">
          <mxGeometry x="546.77" y="170" width="60" height="60" as="geometry" />
        </mxCell>
        <mxCell id="dfukPsjsUEHtBz0K0S8L-45" value="&lt;font face=&quot;Comic Sans MS&quot; style=&quot;font-size: 18px;&quot;&gt;&lt;i style=&quot;&quot;&gt;&lt;b style=&quot;&quot;&gt;MySQL&lt;/b&gt;&lt;/i&gt;&lt;/font&gt;" style="text;html=1;align=center;verticalAlign=middle;whiteSpace=wrap;rounded=0;fillColor=none;" vertex="1" parent="1">
          <mxGeometry x="596.77" y="200" width="80" height="30" as="geometry" />
        </mxCell>
      </root>
    </mxGraphModel>
  </diagram>
</mxfile>
